<?xml version="1.0" encoding="UTF-8"?>
<!DOCTYPE svg PUBLIC "-//W3C//DTD SVG 1.1//EN" "http://www.w3.org/Graphics/SVG/1.1/DTD/svg11.dtd">
<svg xmlns="http://www.w3.org/2000/svg" version="1.1" width="206px" height="206px" style="shape-rendering:geometricPrecision; text-rendering:geometricPrecision; image-rendering:optimizeQuality; fill-rule:evenodd; clip-rule:evenodd" xmlns:xlink="http://www.w3.org/1999/xlink">
<g><path style="opacity:0.902" fill="#a4476c" d="M 88.5,-0.5 C 98.1667,-0.5 107.833,-0.5 117.5,-0.5C 158.479,6.96574 186.312,30.2991 201,69.5C 202.532,75.6287 204.032,81.6287 205.5,87.5C 205.5,97.1667 205.5,106.833 205.5,116.5C 198.649,153.865 177.982,180.699 143.5,197C 105.323,211.301 69.9898,206.301 37.5,182C 3.76806,151.256 -7.06527,113.756 5,69.5C 19.688,30.2991 47.5214,6.96574 88.5,-0.5 Z"/></g>
<g><path style="opacity:1" fill="#f9f5f6" d="M 175.5,64.5 C 183.321,62.8328 186.821,65.8328 186,73.5C 182.269,77.0498 178.269,77.3831 174,74.5C 171.925,70.7942 172.425,67.4609 175.5,64.5 Z"/></g>
<g><path style="opacity:1" fill="#fbf8f9" d="M 12.5,65.5 C 28.1702,65.3334 43.8369,65.5001 59.5,66C 62.1667,69.6667 62.1667,73.3333 59.5,77C 54.1771,77.4994 48.8437,77.666 43.5,77.5C 43.6666,93.8367 43.4999,110.17 43,126.5C 40.6117,131.226 36.7784,132.726 31.5,131C 30.7894,129.745 29.956,128.579 29,127.5C 28.5001,110.837 28.3334,94.17 28.5,77.5C 23.1563,77.666 17.8229,77.4994 12.5,77C 9.87468,73.1681 9.87468,69.3348 12.5,65.5 Z"/></g>
<g><path style="opacity:1" fill="#fcfafb" d="M 71.5,81.5 C 75.9093,80.6185 79.4093,81.9518 82,85.5C 86.861,81.7159 92.361,80.5493 98.5,82C 102.439,82.9235 105.606,85.0902 108,88.5C 109.611,101.764 109.944,115.097 109,128.5C 105,132.5 101,132.5 97,128.5C 96.6667,117.833 96.3333,107.167 96,96.5C 91.4608,90.1977 87.1275,90.531 83,97.5C 82.6667,107.167 82.3333,116.833 82,126.5C 81.0548,130.112 78.7215,131.779 75,131.5C 72.9658,131.646 71.2991,130.98 70,129.5C 68.3666,114.593 68.0332,99.5931 69,84.5C 70.045,83.6266 70.8783,82.6266 71.5,81.5 Z"/></g>
<g><path style="opacity:1" fill="#fcfafb" d="M 134.5,81.5 C 150.704,78.9105 160.038,85.5772 162.5,101.5C 162.647,104.253 161.98,106.753 160.5,109C 151.248,110.115 141.915,110.948 132.5,111.5C 137.125,124.897 144.125,126.063 153.5,115C 160.667,112.833 163.167,115.333 161,122.5C 156.524,129.237 150.19,132.237 142,131.5C 125.96,130.788 118.127,122.288 118.5,106C 118.547,94.1624 123.881,85.9957 134.5,81.5 Z"/></g>
<g><path style="opacity:1" fill="#f9f4f6" d="M 175.5,81.5 C 178.187,81.3359 180.854,81.5026 183.5,82C 184.701,82.9025 185.535,84.0692 186,85.5C 186.667,99.5 186.667,113.5 186,127.5C 184.982,130.683 182.815,132.016 179.5,131.5C 175.741,131.908 173.575,130.242 173,126.5C 172.333,112.833 172.333,99.1667 173,85.5C 173.662,84.0161 174.496,82.6828 175.5,81.5 Z"/></g>
<g><path style="opacity:0.902" fill="#a64b6f" d="M 138.5,91.5 C 144.968,91.6304 148.635,94.9637 149.5,101.5C 143.833,102.833 138.167,102.833 132.5,101.5C 133.154,99.8849 133.654,98.2182 134,96.5C 135.707,94.9625 137.207,93.2959 138.5,91.5 Z"/></g>
</svg>
